<svg xmlns="http://www.w3.org/2000/svg" xmlns:xlink="http://www.w3.org/1999/xlink" width="500" zoomAndPan="magnify" viewBox="0 0 375 374.999991" height="500" preserveAspectRatio="xMidYMid meet" version="1.2"><defs><filter x="0%" y="0%" width="100%" filterUnits="objectBoundingBox" id="5adc218cf5" height="100%"><feColorMatrix values="0 0 0 0 1 0 0 0 0 1 0 0 0 0 1 0 0 0 1 0" type="matrix" in="SourceGraphic"/></filter><clipPath id="8e4e03f32b"><path d="M 0.761719 0.761719 L 278.261719 0.761719 L 278.261719 278.261719 L 0.761719 278.261719 Z M 0.761719 0.761719 "/></clipPath><clipPath id="00148251c1"><rect x="0" width="279" y="0" height="279"/></clipPath></defs><g id="a95e1b9972"><rect x="0" width="375" y="0" height="374.999991" style="fill:#ffffff;fill-opacity:1;stroke:none;"/><rect x="0" width="375" y="0" height="374.999991" style="fill:#ffffff;fill-opacity:1;stroke:none;"/><g mask="url(#118da1f17c)" transform="matrix(1,0,0,1,48,48)"><g clip-path="url(#00148251c1)"><g clip-rule="nonzero" clip-path="url(#8e4e03f32b)"><path style=" stroke:none;fill-rule:nonzero;fill:#000000;fill-opacity:1;" d="M 128.113281 96.859375 L 128.113281 208.648438 L 141.648438 208.648438 L 141.648438 133.992188 L 232.675781 242.242188 C 207.070312 265.496094 174.144531 278.261719 139.511719 278.261719 C 63.003906 278.269531 0.761719 216.023438 0.761719 139.511719 C 0.761719 120.421875 4.578125 101.949219 12.105469 84.578125 L 97.515625 84.578125 L 97.515625 208.648438 L 111.050781 208.648438 L 111.050781 84.589844 L 146.675781 84.589844 L 236.222656 200.652344 L 242.398438 208.65625 L 248.933594 217.109375 L 248.933594 70.871094 L 235.398438 70.871094 L 235.398438 177.429688 L 153.316406 71.054688 L 18.855469 71.054688 C 43.578125 27.527344 89.222656 0.761719 139.511719 0.761719 C 216.023438 0.761719 278.261719 63.003906 278.261719 139.511719 C 278.261719 174.136719 265.515625 207.027344 242.265625 232.632812 Z M 128.113281 96.859375 "/></g></g><mask id="118da1f17c"><g filter="url(#5adc218cf5)"><rect x="0" width="375" y="0" height="374.999991" style="fill:#000000;fill-opacity:0.55;stroke:none;"/></g></mask></g></g></svg>